<svg xmlns="http://www.w3.org/2000/svg" xmlns:xlink="http://www.w3.org/1999/xlink" width="207" height="107" viewBox="0 0 207 107">
  <svg width="116px" height="107px" viewBox="0 0 116 107" class="barcode-canvas" version="1.1" style="shape-rendering:crispEdges;" x="0" y="0" data-barcode="EAN13">
    <g text-rendering="geometricPrecision" fill="#000000">
      <rect x="0" y="0" width="116" height="107" fill="#ffffff" />
      <rect x="15" y="7" width="1" height="86" />
      <rect x="17" y="7" width="1" height="86" />
      <rect x="21" y="7" width="1" height="86" />
      <rect x="23" y="7" width="2" height="86" />
      <rect x="26" y="7" width="1" height="86" />
      <rect x="29" y="7" width="3" height="86" />
      <rect x="33" y="7" width="2" height="86" />
      <rect x="37" y="7" width="2" height="86" />
      <rect x="41" y="7" width="1" height="86" />
      <rect x="44" y="7" width="2" height="86" />
      <rect x="47" y="7" width="4" height="86" />
      <rect x="52" y="7" width="1" height="86" />
      <rect x="55" y="7" width="3" height="86" />
      <rect x="59" y="7" width="1" height="86" />
      <rect x="61" y="7" width="1" height="86" />
      <rect x="63" y="7" width="1" height="86" />
      <rect x="65" y="7" width="2" height="86" />
      <rect x="69" y="7" width="2" height="86" />
      <rect x="72" y="7" width="2" height="86" />
      <rect x="75" y="7" width="2" height="86" />
      <rect x="79" y="7" width="1" height="86" />
      <rect x="84" y="7" width="1" height="86" />
      <rect x="86" y="7" width="1" height="86" />
      <rect x="88" y="7" width="3" height="86" />
      <rect x="93" y="7" width="1" height="86" />
      <rect x="96" y="7" width="3" height="86" />
      <rect x="100" y="7" width="1" height="86" />
      <rect x="104" y="7" width="1" height="86" />
      <rect x="107" y="7" width="1" height="86" />
      <rect x="109" y="7" width="1" height="86" />
      <rect x="7" y="90" width="8" height="11" fill="#ffffff" />
      <g transform="translate(6, 90)">
        <path d="M 2.062 2.25 L 2.062 5.062 L 4.875 5.062 L 4.875 7.312 L 2.625 7.312 L 2.625 6.75 L 2.062 6.75 L 2.062 7.312 L 2.625 7.312 L 2.625 7.875 L 4.875 7.875 L 4.875 7.312 L 5.438 7.312 L 5.438 5.062 L 4.875 5.062 L 4.875 4.5 L 2.625 4.5 L 2.625 2.812 L 5.438 2.812 L 5.438 2.25 Z " fill="#000000" shape-rendering="geometricPrecision" />
      </g>
      <rect x="18" y="90" width="42" height="11" fill="#ffffff" />
      <rect x="64" y="90" width="42" height="11" fill="#ffffff" />
      <g transform="translate(23, 90)">
        <path d="M 2.625 2.25 L 2.625 2.812 L 2.062 2.812 L 2.062 4.5 L 2.625 4.5 L 2.625 2.812 L 4.875 2.812 L 4.875 4.5 L 2.625 4.5 L 2.625 5.062 L 4.875 5.062 L 4.875 6.75 L 4.312 6.75 L 4.312 7.312 L 2.625 7.312 L 2.625 7.875 L 4.312 7.875 L 4.312 7.312 L 4.875 7.312 L 4.875 6.75 L 5.438 6.75 L 5.438 2.812 L 4.875 2.812 L 4.875 2.25 Z M 7.822 2.25 L 7.822 2.812 L 7.26 2.812 L 7.26 3.375 L 6.697 3.375 L 6.697 6.75 L 7.26 6.75 L 7.26 7.312 L 7.822 7.312 L 7.822 7.875 L 8.948 7.875 L 8.948 7.312 L 7.822 7.312 L 7.822 6.75 L 7.26 6.75 L 7.26 6.188 L 7.822 6.188 L 7.822 5.625 L 8.385 5.625 L 8.385 5.062 L 7.822 5.062 L 7.822 5.625 L 7.26 5.625 L 7.26 3.375 L 7.822 3.375 L 7.822 2.812 L 8.948 2.812 L 8.948 3.375 L 9.51 3.375 L 9.51 3.938 L 8.948 3.938 L 8.948 4.5 L 8.385 4.5 L 8.385 5.062 L 8.948 5.062 L 8.948 4.5 L 9.51 4.5 L 9.51 6.75 L 8.948 6.75 L 8.948 7.312 L 9.51 7.312 L 9.51 6.75 L 10.073 6.75 L 10.073 3.375 L 9.51 3.375 L 9.51 2.812 L 8.948 2.812 L 8.948 2.25 Z M 13.02 2.25 L 13.02 2.812 L 12.457 2.812 L 12.457 3.375 L 11.895 3.375 L 11.895 3.938 L 12.457 3.938 L 12.457 3.375 L 13.02 3.375 L 13.02 7.312 L 11.895 7.312 L 11.895 7.875 L 14.707 7.875 L 14.707 7.312 L 13.582 7.312 L 13.582 2.25 Z M 16.53 2.25 L 16.53 2.812 L 15.967 2.812 L 15.967 3.938 L 16.53 3.938 L 16.53 2.812 L 18.78 2.812 L 18.78 4.5 L 17.655 4.5 L 17.655 5.062 L 17.092 5.062 L 17.092 5.625 L 16.53 5.625 L 16.53 6.188 L 15.967 6.188 L 15.967 7.875 L 19.342 7.875 L 19.342 7.312 L 16.53 7.312 L 16.53 6.188 L 17.092 6.188 L 17.092 5.625 L 17.655 5.625 L 17.655 5.062 L 18.78 5.062 L 18.78 4.5 L 19.342 4.5 L 19.342 2.812 L 18.78 2.812 L 18.78 2.25 Z M 21.165 2.25 L 21.165 2.812 L 20.602 2.812 L 20.602 3.938 L 21.165 3.938 L 21.165 2.812 L 23.415 2.812 L 23.415 4.5 L 21.727 4.5 L 21.727 5.062 L 23.415 5.062 L 23.415 7.312 L 21.165 7.312 L 21.165 6.188 L 20.602 6.188 L 20.602 7.312 L 21.165 7.312 L 21.165 7.875 L 23.415 7.875 L 23.415 7.312 L 23.977 7.312 L 23.977 5.062 L 23.415 5.062 L 23.415 4.5 L 23.977 4.5 L 23.977 2.812 L 23.415 2.812 L 23.415 2.25 Z M 27.487 2.25 L 27.487 2.812 L 26.925 2.812 L 26.925 3.375 L 27.487 3.375 L 27.487 5.625 L 25.8 5.625 L 25.8 4.5 L 26.362 4.5 L 26.362 3.938 L 26.925 3.938 L 26.925 3.375 L 26.362 3.375 L 26.362 3.938 L 25.8 3.938 L 25.8 4.5 L 25.237 4.5 L 25.237 6.188 L 27.487 6.188 L 27.487 7.875 L 28.05 7.875 L 28.05 6.188 L 28.612 6.188 L 28.612 5.625 L 28.05 5.625 L 28.05 2.25 Z " fill="#000000" shape-rendering="geometricPrecision" />
      </g>
      <g transform="translate(69, 90)">
        <path d="M 3.75 2.25 L 3.75 2.812 L 3.188 2.812 L 3.188 3.375 L 2.625 3.375 L 2.625 3.938 L 3.188 3.938 L 3.188 3.375 L 3.75 3.375 L 3.75 7.312 L 2.625 7.312 L 2.625 7.875 L 5.438 7.875 L 5.438 7.312 L 4.312 7.312 L 4.312 2.25 Z M 7.26 2.25 L 7.26 2.812 L 6.697 2.812 L 6.697 3.938 L 7.26 3.938 L 7.26 2.812 L 9.51 2.812 L 9.51 4.5 L 8.385 4.5 L 8.385 5.062 L 7.822 5.062 L 7.822 5.625 L 7.26 5.625 L 7.26 6.188 L 6.697 6.188 L 6.697 7.875 L 10.073 7.875 L 10.073 7.312 L 7.26 7.312 L 7.26 6.188 L 7.822 6.188 L 7.822 5.625 L 8.385 5.625 L 8.385 5.062 L 9.51 5.062 L 9.51 4.5 L 10.073 4.5 L 10.073 2.812 L 9.51 2.812 L 9.51 2.25 Z M 11.895 2.25 L 11.895 2.812 L 11.332 2.812 L 11.332 3.938 L 11.895 3.938 L 11.895 2.812 L 14.145 2.812 L 14.145 4.5 L 12.457 4.5 L 12.457 5.062 L 14.145 5.062 L 14.145 7.312 L 11.895 7.312 L 11.895 6.188 L 11.332 6.188 L 11.332 7.312 L 11.895 7.312 L 11.895 7.875 L 14.145 7.875 L 14.145 7.312 L 14.707 7.312 L 14.707 5.062 L 14.145 5.062 L 14.145 4.5 L 14.707 4.5 L 14.707 2.812 L 14.145 2.812 L 14.145 2.25 Z M 18.217 2.25 L 18.217 2.812 L 17.655 2.812 L 17.655 3.375 L 18.217 3.375 L 18.217 5.625 L 16.53 5.625 L 16.53 4.5 L 17.092 4.5 L 17.092 3.938 L 17.655 3.938 L 17.655 3.375 L 17.092 3.375 L 17.092 3.938 L 16.53 3.938 L 16.53 4.5 L 15.967 4.5 L 15.967 6.188 L 18.217 6.188 L 18.217 7.875 L 18.78 7.875 L 18.78 6.188 L 19.342 6.188 L 19.342 5.625 L 18.78 5.625 L 18.78 2.25 Z M 20.602 2.25 L 20.602 5.062 L 23.415 5.062 L 23.415 7.312 L 21.165 7.312 L 21.165 6.75 L 20.602 6.75 L 20.602 7.312 L 21.165 7.312 L 21.165 7.875 L 23.415 7.875 L 23.415 7.312 L 23.977 7.312 L 23.977 5.062 L 23.415 5.062 L 23.415 4.5 L 21.165 4.5 L 21.165 2.812 L 23.977 2.812 L 23.977 2.25 Z M 25.237 2.25 L 25.237 2.812 L 28.05 2.812 L 28.05 3.938 L 27.487 3.938 L 27.487 5.625 L 26.925 5.625 L 26.925 7.875 L 27.487 7.875 L 27.487 5.625 L 28.05 5.625 L 28.05 3.938 L 28.612 3.938 L 28.612 2.25 Z " fill="#000000" shape-rendering="geometricPrecision" />
      </g>
    </g>
  </svg>
  <svg width="71px" height="71px" viewBox="0 0 71 71" class="barcode-canvas" version="1.1" style="shape-rendering:crispEdges;" x="136" y="18" data-barcode="QR">
    <g text-rendering="geometricPrecision" fill="#000000">
      <rect x="0" y="0" width="71" height="71" fill="#ffffff" />
      <rect x="7" y="7" width="14" height="2" />
      <rect x="27" y="7" width="2" height="2" />
      <rect x="31" y="7" width="2" height="2" />
      <rect x="39" y="7" width="2" height="2" />
      <rect x="43" y="7" width="6" height="2" />
      <rect x="51" y="7" width="14" height="2" />
      <rect x="7" y="9" width="2" height="2" />
      <rect x="19" y="9" width="2" height="2" />
      <rect x="23" y="9" width="2" height="2" />
      <rect x="27" y="9" width="2" height="2" />
      <rect x="35" y="9" width="4" height="2" />
      <rect x="47" y="9" width="2" height="2" />
      <rect x="51" y="9" width="2" height="2" />
      <rect x="63" y="9" width="2" height="2" />
      <rect x="7" y="11" width="2" height="2" />
      <rect x="11" y="11" width="6" height="2" />
      <rect x="19" y="11" width="2" height="2" />
      <rect x="31" y="11" width="2" height="2" />
      <rect x="35" y="11" width="6" height="2" />
      <rect x="45" y="11" width="2" height="2" />
      <rect x="51" y="11" width="2" height="2" />
      <rect x="55" y="11" width="6" height="2" />
      <rect x="63" y="11" width="2" height="2" />
      <rect x="7" y="13" width="2" height="2" />
      <rect x="11" y="13" width="6" height="2" />
      <rect x="19" y="13" width="2" height="2" />
      <rect x="23" y="13" width="6" height="2" />
      <rect x="31" y="13" width="4" height="2" />
      <rect x="37" y="13" width="2" height="2" />
      <rect x="41" y="13" width="4" height="2" />
      <rect x="47" y="13" width="2" height="2" />
      <rect x="51" y="13" width="2" height="2" />
      <rect x="55" y="13" width="6" height="2" />
      <rect x="63" y="13" width="2" height="2" />
      <rect x="7" y="15" width="2" height="2" />
      <rect x="11" y="15" width="6" height="2" />
      <rect x="19" y="15" width="2" height="2" />
      <rect x="25" y="15" width="2" height="2" />
      <rect x="33" y="15" width="2" height="2" />
      <rect x="39" y="15" width="10" height="2" />
      <rect x="51" y="15" width="2" height="2" />
      <rect x="55" y="15" width="6" height="2" />
      <rect x="63" y="15" width="2" height="2" />
      <rect x="7" y="17" width="2" height="2" />
      <rect x="19" y="17" width="2" height="2" />
      <rect x="23" y="17" width="4" height="2" />
      <rect x="29" y="17" width="14" height="2" />
      <rect x="47" y="17" width="2" height="2" />
      <rect x="51" y="17" width="2" height="2" />
      <rect x="63" y="17" width="2" height="2" />
      <rect x="7" y="19" width="14" height="2" />
      <rect x="23" y="19" width="2" height="2" />
      <rect x="27" y="19" width="2" height="2" />
      <rect x="31" y="19" width="2" height="2" />
      <rect x="35" y="19" width="2" height="2" />
      <rect x="39" y="19" width="2" height="2" />
      <rect x="43" y="19" width="2" height="2" />
      <rect x="47" y="19" width="2" height="2" />
      <rect x="51" y="19" width="14" height="2" />
      <rect x="25" y="21" width="6" height="2" />
      <rect x="35" y="21" width="2" height="2" />
      <rect x="39" y="21" width="2" height="2" />
      <rect x="43" y="21" width="6" height="2" />
      <rect x="7" y="23" width="10" height="2" />
      <rect x="19" y="23" width="8" height="2" />
      <rect x="29" y="23" width="2" height="2" />
      <rect x="41" y="23" width="2" height="2" />
      <rect x="45" y="23" width="2" height="2" />
      <rect x="49" y="23" width="2" height="2" />
      <rect x="53" y="23" width="2" height="2" />
      <rect x="57" y="23" width="2" height="2" />
      <rect x="61" y="23" width="2" height="2" />
      <rect x="7" y="25" width="4" height="2" />
      <rect x="23" y="25" width="2" height="2" />
      <rect x="27" y="25" width="2" height="2" />
      <rect x="31" y="25" width="4" height="2" />
      <rect x="39" y="25" width="2" height="2" />
      <rect x="43" y="25" width="6" height="2" />
      <rect x="51" y="25" width="6" height="2" />
      <rect x="63" y="25" width="2" height="2" />
      <rect x="7" y="27" width="4" height="2" />
      <rect x="17" y="27" width="4" height="2" />
      <rect x="23" y="27" width="2" height="2" />
      <rect x="27" y="27" width="2" height="2" />
      <rect x="33" y="27" width="12" height="2" />
      <rect x="55" y="27" width="2" height="2" />
      <rect x="9" y="29" width="8" height="2" />
      <rect x="23" y="29" width="2" height="2" />
      <rect x="31" y="29" width="4" height="2" />
      <rect x="53" y="29" width="6" height="2" />
      <rect x="61" y="29" width="2" height="2" />
      <rect x="7" y="31" width="4" height="2" />
      <rect x="13" y="31" width="16" height="2" />
      <rect x="31" y="31" width="2" height="2" />
      <rect x="35" y="31" width="4" height="2" />
      <rect x="41" y="31" width="2" height="2" />
      <rect x="47" y="31" width="2" height="2" />
      <rect x="57" y="31" width="4" height="2" />
      <rect x="7" y="33" width="2" height="2" />
      <rect x="15" y="33" width="2" height="2" />
      <rect x="23" y="33" width="4" height="2" />
      <rect x="39" y="33" width="18" height="2" />
      <rect x="63" y="33" width="2" height="2" />
      <rect x="7" y="35" width="2" height="2" />
      <rect x="15" y="35" width="6" height="2" />
      <rect x="23" y="35" width="2" height="2" />
      <rect x="29" y="35" width="4" height="2" />
      <rect x="37" y="35" width="2" height="2" />
      <rect x="47" y="35" width="4" height="2" />
      <rect x="53" y="35" width="2" height="2" />
      <rect x="57" y="35" width="4" height="2" />
      <rect x="7" y="37" width="6" height="2" />
      <rect x="17" y="37" width="2" height="2" />
      <rect x="23" y="37" width="4" height="2" />
      <rect x="29" y="37" width="2" height="2" />
      <rect x="35" y="37" width="2" height="2" />
      <rect x="43" y="37" width="4" height="2" />
      <rect x="51" y="37" width="4" height="2" />
      <rect x="61" y="37" width="2" height="2" />
      <rect x="7" y="39" width="6" height="2" />
      <rect x="17" y="39" width="6" height="2" />
      <rect x="25" y="39" width="2" height="2" />
      <rect x="29" y="39" width="2" height="2" />
      <rect x="37" y="39" width="6" height="2" />
      <rect x="47" y="39" width="2" height="2" />
      <rect x="57" y="39" width="4" height="2" />
      <rect x="7" y="41" width="2" height="2" />
      <rect x="11" y="41" width="6" height="2" />
      <rect x="23" y="41" width="6" height="2" />
      <rect x="31" y="41" width="6" height="2" />
      <rect x="39" y="41" width="10" height="2" />
      <rect x="51" y="41" width="6" height="2" />
      <rect x="59" y="41" width="2" height="2" />
      <rect x="63" y="41" width="2" height="2" />
      <rect x="7" y="43" width="2" height="2" />
      <rect x="11" y="43" width="12" height="2" />
      <rect x="33" y="43" width="10" height="2" />
      <rect x="47" y="43" width="2" height="2" />
      <rect x="59" y="43" width="2" height="2" />
      <rect x="7" y="45" width="2" height="2" />
      <rect x="15" y="45" width="2" height="2" />
      <rect x="21" y="45" width="2" height="2" />
      <rect x="25" y="45" width="2" height="2" />
      <rect x="31" y="45" width="4" height="2" />
      <rect x="37" y="45" width="2" height="2" />
      <rect x="49" y="45" width="2" height="2" />
      <rect x="55" y="45" width="2" height="2" />
      <rect x="61" y="45" width="2" height="2" />
      <rect x="7" y="47" width="2" height="2" />
      <rect x="15" y="47" width="8" height="2" />
      <rect x="31" y="47" width="2" height="2" />
      <rect x="35" y="47" width="4" height="2" />
      <rect x="41" y="47" width="2" height="2" />
      <rect x="47" y="47" width="10" height="2" />
      <rect x="59" y="47" width="6" height="2" />
      <rect x="23" y="49" width="6" height="2" />
      <rect x="39" y="49" width="2" height="2" />
      <rect x="47" y="49" width="2" height="2" />
      <rect x="55" y="49" width="10" height="2" />
      <rect x="7" y="51" width="14" height="2" />
      <rect x="23" y="51" width="2" height="2" />
      <rect x="27" y="51" width="6" height="2" />
      <rect x="37" y="51" width="2" height="2" />
      <rect x="45" y="51" width="4" height="2" />
      <rect x="51" y="51" width="2" height="2" />
      <rect x="55" y="51" width="6" height="2" />
      <rect x="7" y="53" width="2" height="2" />
      <rect x="19" y="53" width="2" height="2" />
      <rect x="25" y="53" width="6" height="2" />
      <rect x="35" y="53" width="2" height="2" />
      <rect x="45" y="53" width="4" height="2" />
      <rect x="55" y="53" width="2" height="2" />
      <rect x="61" y="53" width="4" height="2" />
      <rect x="7" y="55" width="2" height="2" />
      <rect x="11" y="55" width="6" height="2" />
      <rect x="19" y="55" width="2" height="2" />
      <rect x="23" y="55" width="4" height="2" />
      <rect x="29" y="55" width="2" height="2" />
      <rect x="37" y="55" width="2" height="2" />
      <rect x="41" y="55" width="2" height="2" />
      <rect x="47" y="55" width="10" height="2" />
      <rect x="59" y="55" width="2" height="2" />
      <rect x="7" y="57" width="2" height="2" />
      <rect x="11" y="57" width="6" height="2" />
      <rect x="19" y="57" width="2" height="2" />
      <rect x="23" y="57" width="2" height="2" />
      <rect x="31" y="57" width="6" height="2" />
      <rect x="39" y="57" width="2" height="2" />
      <rect x="43" y="57" width="2" height="2" />
      <rect x="47" y="57" width="2" height="2" />
      <rect x="53" y="57" width="2" height="2" />
      <rect x="57" y="57" width="8" height="2" />
      <rect x="7" y="59" width="2" height="2" />
      <rect x="11" y="59" width="6" height="2" />
      <rect x="19" y="59" width="2" height="2" />
      <rect x="23" y="59" width="4" height="2" />
      <rect x="33" y="59" width="8" height="2" />
      <rect x="45" y="59" width="4" height="2" />
      <rect x="51" y="59" width="12" height="2" />
      <rect x="7" y="61" width="2" height="2" />
      <rect x="19" y="61" width="2" height="2" />
      <rect x="23" y="61" width="2" height="2" />
      <rect x="31" y="61" width="4" height="2" />
      <rect x="39" y="61" width="2" height="2" />
      <rect x="43" y="61" width="2" height="2" />
      <rect x="47" y="61" width="4" height="2" />
      <rect x="55" y="61" width="4" height="2" />
      <rect x="61" y="61" width="2" height="2" />
      <rect x="7" y="63" width="14" height="2" />
      <rect x="23" y="63" width="2" height="2" />
      <rect x="27" y="63" width="2" height="2" />
      <rect x="31" y="63" width="2" height="2" />
      <rect x="35" y="63" width="2" height="2" />
      <rect x="41" y="63" width="4" height="2" />
      <rect x="51" y="63" width="2" height="2" />
      <rect x="55" y="63" width="6" height="2" />
    </g>
  </svg>
</svg>